<?xml version="1.0" standalone="no"?>
<!DOCTYPE svg PUBLIC "-//W3C//DTD SVG 20010904//EN"
 "http://www.w3.org/TR/2001/REC-SVG-20010904/DTD/svg10.dtd">
<svg version="1.0" xmlns="http://www.w3.org/2000/svg"
 width="174.000000pt" height="174.000000pt" viewBox="0 0 174.000000 174.000000"
 preserveAspectRatio="xMidYMid meet">
<metadata>
Created by potrace 1.14, written by Peter Selinger 2001-2017
</metadata>
<g transform="translate(0.000000,174.000000) scale(0.100000,-0.100000)"
fill="#000000" stroke="none">
<path d="M0 870 l0 -870 870 0 870 0 0 870 0 870 -870 0 -870 0 0 -870z m1296
409 c35 -34 66 -71 70 -81 8 -25 -41 -78 -71 -78 -12 0 -48 -27 -89 -69 l-68
-68 12 -42 c12 -45 6 -99 -17 -146 -8 -16 -94 -110 -191 -207 -186 -188 -206
-201 -266 -178 -34 13 -211 182 -232 222 -18 34 -18 72 0 106 21 39 335 347
373 366 46 23 112 30 158 17 l40 -11 67 67 c38 38 68 76 68 87 0 23 47 76 68
76 7 0 42 -28 78 -61z"/>
<path d="M705 840 l-110 -110 83 -82 82 -83 112 112 113 113 -80 80 c-44 44
-82 80 -85 80 -3 0 -55 -50 -115 -110z"/>
</g>
</svg>
